<?xml version="1.0" standalone="no"?>
<!DOCTYPE svg PUBLIC "-//W3C//DTD SVG 20010904//EN"
 "http://www.w3.org/TR/2001/REC-SVG-20010904/DTD/svg10.dtd">
<svg version="1.0" xmlns="http://www.w3.org/2000/svg"
 width="449.000000pt" height="556.000000pt" viewBox="0 0 449.000000 556.000000"
 preserveAspectRatio="xMidYMid meet">

<g transform="translate(0.000000,556.000000) scale(0.100000,-0.100000)"
fill="#000000" stroke="none">
<path d="M2638 5528 c-2 -17 -12 -25 -38 -29 -20 -4 -26 -7 -13 -8 54 -3 186
-55 254 -99 74 -48 158 -132 184 -183 11 -21 12 -33 3 -56 -14 -36 -5 -63 20
-63 13 0 22 12 31 39 6 23 27 53 48 71 135 119 366 97 493 -48 63 -71 82 -122
88 -234 3 -73 8 -98 19 -102 21 -8 31 0 38 34 6 29 9 30 58 30 107 -1 234 -47
332 -121 212 -160 259 -484 104 -712 -32 -47 -38 -61 -28 -73 17 -21 27 -18
56 17 17 20 32 29 45 26 12 -4 18 0 18 11 0 10 6 29 14 44 57 109 81 275 57
400 -21 104 -83 221 -161 298 -113 113 -217 164 -370 182 l-97 12 -13 49 c-43
169 -182 307 -340 337 -122 23 -262 1 -317 -50 l-31 -29 -94 94 c-95 95 -190
155 -246 155 -13 0 -31 4 -40 9 -9 4 -29 11 -44 15 -22 5 -27 2 -30 -16z"/>
<path d="M2080 5514 c-146 -46 -344 -176 -490 -324 -118 -119 -208 -244 -274
-380 -56 -113 -56 -114 -108 -129 -47 -14 -92 -45 -160 -107 -83 -76 -131
-151 -169 -263 -24 -68 -26 -212 -4 -264 24 -58 69 -124 82 -120 6 2 14 0 17
-5 7 -12 -32 -62 -49 -62 -18 0 -25 -23 -25 -88 0 -56 11 -83 63 -155 22 -31
16 -46 -35 -77 -22 -14 -67 -45 -98 -70 -57 -46 -93 -61 -180 -77 l-45 -8 0
-57 c0 -52 -4 -61 -52 -125 -123 -163 -173 -306 -173 -503 0 -111 17 -203 52
-285 17 -40 21 -74 23 -173 1 -67 -1 -125 -5 -127 -4 -2 -23 13 -43 35 -41 46
-84 53 -117 20 -30 -30 -40 -63 -40 -130 0 -51 -3 -60 -26 -75 -14 -9 -57 -23
-96 -31 -39 -8 -83 -21 -99 -30 -28 -14 -29 -16 -29 -98 l0 -84 35 -21 c30
-18 35 -25 35 -59 0 -65 22 -76 127 -67 112 10 336 7 367 -5 13 -5 46 -41 72
-81 47 -70 127 -149 182 -179 15 -8 38 -23 52 -32 l24 -18 -31 -32 c-56 -60
-78 -88 -115 -149 -82 -134 -131 -299 -97 -325 8 -6 39 -19 69 -28 30 -10 74
-30 97 -47 23 -16 48 -29 56 -29 8 0 34 -15 56 -34 23 -19 53 -37 68 -40 97
-19 160 -26 253 -27 107 -2 163 7 260 40 30 11 67 22 82 25 15 4 34 16 43 29
13 20 12 29 -5 84 -34 110 -54 277 -45 386 5 71 11 100 21 104 8 3 38 -1 67
-9 60 -17 58 -10 32 -153 -9 -49 -19 -143 -22 -208 l-6 -117 33 -41 32 -40
-74 -77 c-150 -155 -318 -454 -302 -538 l6 -35 227 6 c277 7 456 8 1289 2 421
-4 652 -2 652 5 0 5 -10 32 -22 60 l-22 51 27 23 c15 13 27 30 27 39 0 38 20
55 63 55 35 0 50 7 86 39 24 22 56 42 70 45 49 10 56 21 55 83 -1 100 -76 261
-156 332 -35 31 -33 56 5 70 87 34 203 96 239 130 87 79 116 189 70 263 -28
45 -28 65 0 74 34 10 148 82 199 125 54 45 102 131 119 212 19 95 -12 201 -87
290 -12 16 -23 33 -23 38 0 5 15 42 34 82 62 133 70 174 70 362 0 155 -2 179
-28 270 -19 71 -25 112 -21 142 5 35 0 52 -35 120 -23 43 -45 82 -51 88 -19
19 -7 43 41 81 69 54 102 123 108 225 l5 79 46 34 c26 19 66 57 89 85 l42 50
0 141 0 142 -34 47 c-19 25 -48 59 -64 75 -26 24 -34 27 -59 19 -38 -13 -41
-43 -6 -66 62 -41 103 -126 103 -211 0 -91 -71 -203 -149 -236 -30 -12 -34
-12 -43 3 -12 23 -58 23 -58 0 0 -9 9 -36 21 -60 63 -129 6 -266 -128 -308
-47 -15 -63 -16 -109 -6 -30 7 -57 17 -60 23 -3 5 2 22 13 36 73 100 104 404
64 623 -65 347 -235 617 -527 834 -91 69 -99 74 -214 131 -233 115 -514 169
-770 145 -405 -37 -733 -207 -980 -508 l-35 -43 -51 25 c-53 25 -110 76 -119
106 -7 21 -35 33 -48 20 -18 -18 4 -64 58 -116 30 -30 67 -56 84 -60 17 -4 33
-11 37 -16 3 -5 -11 -35 -30 -67 -19 -32 -49 -88 -65 -125 l-30 -66 -43 13
c-24 7 -54 18 -68 23 -32 13 -50 6 -50 -17 0 -20 52 -48 106 -57 38 -6 40 -14
20 -75 -22 -70 -37 -159 -39 -233 l-2 -70 -37 -9 c-87 -22 -180 40 -193 128
-11 72 12 121 83 178 24 19 26 26 13 47 -6 10 -13 10 -29 2 -32 -17 -49 -4
-79 57 -73 149 -21 345 127 486 91 87 187 116 277 84 26 -9 36 -9 45 0 18 18
-1 43 -43 57 -42 15 -41 22 17 138 51 103 86 155 165 252 151 184 403 352 629
420 49 14 67 23 44 19 -40 -5 -74 11 -74 37 0 12 -26 10 -80 -7z m745 -694
c291 -50 543 -177 741 -374 115 -116 146 -153 206 -257 116 -197 168 -392 168
-624 0 -137 -6 -187 -40 -315 -5 -19 -29 -62 -52 -94 -45 -63 -55 -61 -58 9
-1 55 -44 200 -94 322 -67 163 -233 388 -367 498 -207 171 -472 287 -712 314
-427 48 -786 -84 -1028 -379 -73 -89 -177 -244 -221 -328 -31 -60 -44 -69 -59
-41 -34 65 -48 177 -30 248 52 201 86 289 158 409 26 42 49 79 53 82 3 3 22
28 43 57 85 117 278 274 433 351 251 126 572 171 859 122z m65 -823 c34 -216
58 -331 108 -507 19 -69 37 -145 39 -170 3 -26 12 -51 22 -60 10 -8 34 -54 55
-102 53 -126 53 -127 27 -100 -58 60 -151 56 -212 -8 -8 -8 -26 -33 -39 -55
-22 -34 -25 -52 -25 -127 0 -82 2 -88 31 -125 42 -52 92 -70 144 -53 82 27
144 122 144 222 1 32 3 58 7 58 3 0 25 -35 49 -77 57 -101 147 -192 221 -222
l56 -23 -19 -61 c-19 -64 -18 -87 5 -87 9 0 22 28 36 74 l22 74 57 7 c31 3 71
7 87 7 42 0 186 -46 195 -63 4 -8 10 -39 14 -70 5 -51 4 -57 -14 -62 -16 -4
-20 -14 -20 -46 0 -41 -18 -102 -47 -155 -38 -70 -118 -125 -205 -141 -54 -10
-139 18 -182 60 -39 38 -43 50 -21 79 19 25 19 66 1 66 -8 0 -28 -24 -44 -53
-35 -62 -120 -143 -196 -186 -264 -152 -761 -161 -1126 -21 -134 52 -348 174
-438 252 -179 154 -263 278 -270 401 -4 57 -7 67 -22 67 -13 0 -20 -9 -22 -27
-3 -24 -10 -29 -59 -42 -48 -12 -66 -12 -119 -1 -137 29 -221 136 -222 283 0
50 6 87 17 111 17 36 72 96 87 96 14 0 8 29 -8 38 -13 7 -10 12 18 30 19 13
37 17 42 12 5 -5 37 -6 72 -3 107 10 200 -44 221 -127 7 -25 16 -36 31 -38 14
-2 22 2 22 11 0 10 16 17 46 22 114 17 255 79 355 157 39 29 55 36 43 16 -4
-6 0 -17 10 -23 15 -11 14 -17 -9 -66 -46 -100 -28 -223 41 -278 19 -15 41
-21 74 -21 62 0 115 38 154 110 50 91 37 216 -27 272 -34 30 -83 41 -123 28
-27 -9 -42 -9 -65 0 -16 7 -28 16 -27 19 2 3 26 36 53 73 42 55 56 68 87 73
41 7 75 0 96 -21 7 -8 23 -14 36 -14 12 0 31 -7 42 -15 10 -8 30 -15 44 -15
14 0 36 -7 50 -15 36 -20 37 -20 44 33 10 77 29 152 36 147 4 -3 10 -27 14
-55 4 -27 16 -71 26 -96 16 -36 24 -45 40 -42 20 3 21 11 24 123 4 135 19 194
75 290 49 85 151 183 236 226 84 44 88 41 105 -64z m-766 -272 c-7 -38 -13
-85 -14 -102 0 -31 -2 -33 -35 -33 -19 0 -35 3 -35 6 0 8 94 204 96 201 1 -1
-4 -33 -12 -72z m-20 -513 c12 -23 12 -32 0 -60 -12 -30 -17 -33 -51 -30 -32
3 -39 7 -47 35 -20 71 65 119 98 55z m936 -222 c24 -24 25 -48 4 -78 -17 -24
-62 -30 -82 -10 -17 17 -15 74 4 92 21 22 50 20 74 -4z m-2443 -350 c13 -36
28 -69 33 -74 21 -21 10 -55 -21 -72 -40 -20 -44 -15 -59 87 -11 78 -6 133 12
127 6 -2 21 -33 35 -68z m-207 -565 c13 -27 48 -74 77 -104 29 -30 53 -62 54
-70 1 -25 7 -52 13 -58 10 -10 26 9 26 33 l0 24 113 0 c119 0 211 -17 346 -64
40 -14 90 -26 110 -26 39 -1 119 -15 127 -22 2 -3 -2 -32 -10 -64 -8 -32 -20
-101 -27 -151 l-12 -93 -69 0 c-89 0 -173 19 -388 90 -96 32 -189 61 -206 64
-26 6 -30 11 -26 31 6 34 -10 31 -48 -6 l-31 -32 -102 7 c-56 4 -123 3 -150
-2 -26 -5 -49 -6 -52 -2 -2 4 23 13 58 20 114 22 116 30 10 55 -43 10 -97 26
-119 36 -41 17 -41 18 -40 65 l1 48 89 23 c144 37 176 67 176 164 0 100 39
117 80 34z m1820 -116 c0 -21 -5 -24 -47 -34 -33 -7 -33 -6 -33 33 l0 40 40
-10 c28 -7 40 -16 40 -29z m144 -14 c44 -8 128 -16 188 -18 106 -2 108 -2 86
-20 -13 -10 -39 -33 -58 -52 -46 -44 -87 -65 -128 -65 -43 0 -66 13 -129 71
-28 27 -57 49 -62 49 -6 0 -11 11 -11 25 0 30 6 30 114 10z m-79 -94 c11 -10
31 -28 45 -40 14 -13 42 -32 63 -42 l38 -20 -31 -39 c-47 -59 -81 -80 -132
-80 -82 0 -158 77 -158 159 0 54 14 79 53 96 27 11 37 11 67 -1 19 -8 44 -23
55 -33z m448 28 c56 -29 75 -106 40 -166 -24 -43 -85 -83 -126 -83 -37 0 -99
39 -135 85 -29 36 -28 40 11 58 17 9 46 30 62 48 59 62 104 80 148 58z m-1215
-84 c301 -31 334 -34 355 -25 34 13 128 40 139 40 13 0 9 -24 -35 -192 -56
-213 -97 -464 -117 -718 -6 -80 -13 -164 -16 -187 l-5 -43 -39 20 c-22 11 -45
30 -51 42 -13 24 -7 137 16 283 7 50 21 139 30 198 9 59 14 115 11 123 -10 25
-24 6 -32 -41 -3 -25 -10 -47 -14 -50 -4 -3 -27 2 -51 9 -24 8 -73 22 -109 31
-36 10 -85 23 -110 30 -25 7 -74 20 -110 30 -141 38 -130 30 -130 88 1 77 35
296 53 340 19 44 11 43 215 22z m1495 -35 c52 -15 199 -117 252 -174 19 -21
110 -92 178 -140 159 -112 234 -196 252 -285 l7 -34 -23 23 c-62 59 -169 76
-253 41 -60 -26 -123 -91 -152 -157 -13 -30 -27 -54 -32 -54 -18 0 -62 57 -62
81 0 13 -7 76 -15 139 -9 63 -20 149 -26 190 -9 72 -21 101 -35 87 -4 -4 -2
-48 5 -99 27 -219 43 -339 57 -435 7 -56 14 -130 14 -165 0 -60 -2 -66 -30
-86 -16 -12 -38 -22 -50 -22 -17 0 -20 6 -20 42 0 181 -81 716 -150 982 -11
44 -20 83 -20 87 0 7 31 1 103 -21z m-139 -156 c60 -306 88 -562 90 -818 l1
-149 -60 -13 c-150 -30 -224 -37 -422 -42 -218 -4 -347 8 -482 45 l-53 15 5
272 c5 268 7 295 53 541 18 97 47 215 61 253 9 24 9 24 37 -13 15 -20 46 -50
69 -66 33 -24 50 -29 95 -29 67 0 109 23 154 87 l33 45 40 -45 c54 -62 100
-87 156 -87 74 0 154 70 174 153 4 15 9 26 11 24 3 -2 19 -80 38 -173z m735
-444 c73 -37 102 -100 82 -176 -6 -22 -66 -123 -134 -224 -107 -161 -126 -185
-147 -182 -17 3 -21 0 -17 -12 3 -8 11 -34 17 -58 7 -28 23 -54 47 -74 28 -24
34 -36 28 -53 -19 -62 -186 -89 -271 -44 -23 12 -44 28 -47 36 -10 27 12 181
28 193 19 14 20 34 1 34 -12 0 -12 10 1 63 38 163 92 332 127 396 55 103 189
151 285 101z"/>
<path d="M2163 2803 c-39 -14 16 -69 115 -116 138 -64 278 -82 413 -51 62 14
70 18 67 37 -3 25 -12 25 -103 7 -126 -26 -290 6 -402 79 -77 50 -76 49 -90
44z"/>
<path d="M2990 2425 c-11 -13 -10 -14 4 -9 9 3 16 10 16 15 0 13 -6 11 -20 -6z"/>
<path d="M3024 2394 c-18 -14 -18 -15 4 -4 12 6 22 13 22 15 0 8 -5 6 -26 -11z"/>
<path d="M320 1898 c0 -61 25 -122 64 -157 38 -36 44 -17 7 25 -41 46 -51 73
-51 135 0 27 -4 49 -10 49 -5 0 -10 -24 -10 -52z"/>
<path d="M130 1833 c-61 -5 -76 -11 -62 -25 16 -16 202 0 202 18 0 14 -30 16
-140 7z"/>
<path d="M2420 1379 c0 -5 5 -7 10 -4 6 3 10 8 10 11 0 2 -4 4 -10 4 -5 0 -10
-5 -10 -11z"/>
<path d="M2403 5503 c26 -2 68 -2 95 0 26 2 4 3 -48 3 -52 0 -74 -1 -47 -3z"/>
<path d="M2298 5493 c6 -2 18 -2 25 0 6 3 1 5 -13 5 -14 0 -19 -2 -12 -5z"/>
<path d="M2091 5211 c-32 -32 -55 -119 -55 -211 -1 -110 7 -140 38 -140 31 0
34 12 23 79 -11 61 3 163 29 212 29 56 4 99 -35 60z"/>
<path d="M2711 5154 c-33 -51 -55 -130 -49 -184 2 -30 7 -35 28 -35 24 0 25 4
31 67 4 52 13 79 37 118 39 62 40 80 8 80 -18 0 -32 -13 -55 -46z"/>
<path d="M3007 5032 c-37 -41 -61 -155 -34 -165 24 -9 47 13 47 44 0 17 10 48
21 69 32 57 6 96 -34 52z"/>
<path d="M3486 4958 c-22 -13 -55 -44 -73 -70 -28 -39 -34 -57 -36 -105 -2
-53 0 -58 20 -61 22 -3 26 4 37 68 8 45 54 102 101 124 28 13 35 23 33 39 -4
30 -35 32 -82 5z"/>
<path d="M4130 4318 c-55 -24 -128 -44 -198 -53 -84 -11 -84 -61 0 -57 121 6
268 59 268 97 0 28 -25 33 -70 13z"/>
</g>
</svg>
